USFL
nRows=252
nColumns=2
inDegrees=yes
endheader
time	tib_ant_r	
3.45968	 79.935701	
3.49294	 79.950638	
3.52621	 79.916282	
3.55948	 79.909957	
3.59274	 79.929366	
3.62601	 79.914596	
3.65927	 79.923822	
3.69254	 79.912846	
3.72581	 79.902340	
3.75907	 79.900849	
3.79234	 79.858440	
3.8256	 79.868499	
3.85887	 79.942244	
3.89214	 79.926341	
3.9254	 79.904683	
3.95867	 79.910220	
3.99194	 79.904652	
4.0252	 79.910500	
4.05847	 79.885809	
4.09173	 79.898319	
4.125	 79.887738	
4.15827	 79.856513	
4.19153	 79.875156	
4.2248	 79.874841	
4.25806	 79.866078	
4.29133	 79.851145	
4.3246	 79.844336	
4.35786	 79.850979	
4.39113	 79.853505	
4.4244	 79.866366	
4.45766	 79.865400	
4.49093	 79.851725	
4.52419	 79.833157	
4.55746	 79.832795	
4.59073	 79.862563	
4.62399	 79.865098	
4.65726	 79.864455	
4.69052	 79.855231	
4.72379	 79.855057	
4.75706	 79.888648	
4.79032	 79.929360	
4.82359	 79.918972	
4.85685	 79.917368	
4.89012	 79.925456	
4.92339	 79.919641	
4.95665	 79.924048	
4.98992	 79.913161	
5.02319	 79.905133	
5.05645	 79.917019	
5.08972	 79.924776	
5.12298	 79.911331	
5.15625	 79.892055	
5.18952	 79.909696	
5.22278	 79.977772	
5.25605	 80.057735	
5.28931	 79.673324	
5.32258	 78.892996	
5.35585	 78.282257	
5.38911	 77.564260	
5.42238	 77.491404	
5.45565	 76.897269	
5.48891	 76.643613	
5.52218	 76.705607	
5.55544	 76.440504	
5.58871	 76.389784	
5.62198	 76.415387	
5.65524	 76.304639	
5.68851	 75.863368	
5.72177	 75.293864	
5.75504	 74.503983	
5.78831	 74.423962	
5.82157	 73.756669	
5.85484	 73.099615	
5.8881	 73.035151	
5.92137	 72.522593	
5.95464	 72.241497	
5.9879	 72.162594	
6.02117	 71.803363	
6.05444	 71.594572	
6.0877	 71.538821	
6.12097	 71.656147	
6.15423	 71.561273	
6.1875	 71.553272	
6.22077	 71.696650	
6.25403	 71.612124	
6.2873	 71.808343	
6.32056	 71.818933	
6.35383	 71.622684	
6.3871	 71.798558	
6.42036	 71.926101	
6.45363	 72.175713	
6.4869	 72.311296	
6.52016	 72.355496	
6.55343	 72.335862	
6.58669	 72.396009	
6.61996	 72.427098	
6.65323	 72.350543	
6.68649	 72.281777	
6.71976	 72.298672	
6.75302	 72.263178	
6.78629	 72.251939	
6.81956	 72.311188	
6.85282	 72.317111	
6.88609	 72.320428	
6.91935	 72.313638	
6.95262	 72.301247	
6.98589	 72.228634	
7.01915	 72.313744	
7.05242	 72.316410	
7.08569	 72.273454	
7.11895	 72.214902	
7.15222	 72.220709	
7.18548	 72.272863	
7.21875	 72.286084	
7.25202	 72.264020	
7.28528	 72.206906	
7.31855	 72.135966	
7.35181	 72.117409	
7.38508	 72.101136	
7.41835	 72.058703	
7.45161	 72.028895	
7.48488	 72.003262	
7.51815	 71.991638	
7.55141	 71.952893	
7.58468	 71.849094	
7.61794	 71.793509	
7.65121	 71.783220	
7.68448	 71.733544	
7.71774	 71.792102	
7.75101	 71.759150	
7.78427	 71.774544	
7.81754	 71.732031	
7.85081	 71.739410	
7.88407	 71.817555	
7.91734	 71.876813	
7.9506	 71.848043	
7.98387	 71.837985	
8.01714	 71.819501	
8.0504	 71.865681	
8.08367	 71.809427	
8.11694	 71.868967	
8.1502	 71.903976	
8.18347	 72.039354	
8.21673	 72.177143	
8.25	 72.275513	
8.28327	 72.383629	
8.31653	 72.337507	
8.3498	 72.331943	
8.38306	 72.262969	
8.41633	 72.145602	
8.4496	 72.154541	
8.48286	 72.203375	
8.51613	 72.205517	
8.5494	 72.244933	
8.58266	 72.209905	
8.61593	 72.159300	
8.64919	 72.192287	
8.68246	 72.162051	
8.71573	 72.168680	
8.74899	 72.173160	
8.78226	 72.212144	
8.81552	 72.245146	
8.84879	 72.289991	
8.88206	 72.275875	
8.91532	 72.244580	
8.94859	 72.340581	
8.98185	 72.348702	
9.01512	 72.359573	
9.04839	 72.422155	
9.08165	 72.388393	
9.11492	 72.383135	
9.14819	 72.412366	
9.18145	 72.406291	
9.21472	 72.403213	
9.24798	 72.384792	
9.28125	 72.356131	
9.31452	 72.363839	
9.34778	 72.368483	
9.38105	 72.389493	
9.41431	 72.426047	
9.44758	 72.423694	
9.48085	 72.430586	
9.51411	 72.363001	
9.54738	 72.349649	
9.58065	 72.406863	
9.61391	 72.477338	
9.64718	 72.492072	
9.68044	 72.559350	
9.71371	 72.591767	
9.74698	 72.599796	
9.78024	 72.695289	
9.81351	 72.687887	
9.84677	 72.743535	
9.88004	 72.735586	
9.91331	 72.730887	
9.94657	 72.827247	
9.97984	 72.879178	
10.0131	 72.903860	
10.0464	 72.869639	
10.0796	 72.795796	
10.1129	 72.800894	
10.1462	 72.850796	
10.1794	 72.847143	
10.2127	 72.757730	
10.246	 72.745198	
10.2792	 72.725609	
10.3125	 72.599465	
10.3458	 72.424095	
10.379	 72.315962	
10.4123	 72.105192	
10.4456	 72.076611	
10.4788	 72.054893	
10.5121	 71.693927	
10.5454	 71.639092	
10.5786	 71.557670	
10.6119	 71.573225	
10.6452	 71.532113	
10.6784	 71.406401	
10.7117	 71.329821	
10.745	 71.279541	
10.7782	 71.314892	
10.8115	 71.321727	
10.8448	 71.350425	
10.878	 71.226728	
10.9113	 71.237636	
10.9446	 71.253851	
10.9778	 71.323953	
11.0111	 71.343680	
11.0444	 71.404621	
11.0776	 71.407520	
11.1109	 71.420345	
11.1442	 71.381567	
11.1774	 71.343407	
11.2107	 71.346504	
11.244	 71.355419	
11.2772	 71.322900	
11.3105	 71.411293	
11.3437	 71.489680	
11.377	 71.527208	
11.4103	 71.668273	
11.4435	 71.753462	
11.4768	 71.817043	
11.5101	 71.853822	
11.5433	 71.888260	
11.5766	 71.984698	
11.6099	 72.062411	
11.6431	 72.150799	
11.6764	 72.358657	
11.7097	 72.552285	
11.7429	 72.653402	
11.7762	 72.908767	
11.8095	 73.248934	
